# xmcd
#
# Track frame offsets: 
#        150
#        15028
#        32651
#        49221
#        66105
#        84307
#        102870
#        116303
#        131431
#        151233
#        167873
#        182504
#        200338
#        223949
#        235650
#        250146
#        267389
#        280959
#
# Disc length: 4015 seconds
#
# Revision: 1
# Processed by: cddbd v1.5.2PL0 Copyright (c) Steve Scherf et al.
# Submitted via: ExactAudioCopy v0.99pb4
#
DISCID=eb0fad12
DTITLE=Various Artist - 2002
DYEAR=2002
DGENRE=country
TTITLE0=Nighlight Duo and Meie Mees - Just See Kantrilaul
TTITLE1=PS Troika - Põdrakasvataja
TTITLE2=Cacao - Tõeline Paradiis
TTITLE3=Pasadena - Kalamehe Laul
TTITLE4=Ane`/ Tantsi
TTITLE5=Oleg Sõlg - Kolm Blondiini
TTITLE6=Luci and Ane`/ Pannkoogilaul
TTITLE7=Meelis Punder - Rio
TTITLE8=Hovery Covery - Kaks Me Kaks
TTITLE9=Nightlight Duo - La Fiesta Del Sol
TTITLE10=Pasadena - Homme Muudan Ennast
TTITLE11=Eesti Gun - Gun Can
TTITLE12=Jokker - Suvi
TTITLE13=Arnold Oksamaa and Brassmans Show - Butterfly
TTITLE14=PS Troika - Kole on möödas
TTITLE15=Üllar Jörberg - Neiu, Tule Kaasa
TTITLE16=Karavan - Tore Päev
TTITLE17=Kirsipuu and Kasesalu and The Rocking Guys - Peter Gunn Teema
EXTD=
EXTT0=
EXTT1=
EXTT2=
EXTT3=
EXTT4=
EXTT5=
EXTT6=
EXTT7=
EXTT8=
EXTT9=
EXTT10=
EXTT11=
EXTT12=
EXTT13=
EXTT14=
EXTT15=
EXTT16=
EXTT17=
PLAYORDER=
